<svg xmlns="http://www.w3.org/2000/svg" width="581.8183" height="725.35583" x="0px" y="0px" viewBox="0 0 581.8183 725.35583"><path fill="none" d="M-5.726-4.805h591.638v739.719H-5.726z" style="fill:#05092d;fill-opacity:0"/><defs><clipPath id="b" clipPathUnits="userSpaceOnUse"><path d="M0 595.276h841.89V0H0Z"/></clipPath><clipPath id="c" clipPathUnits="userSpaceOnUse"><path d="M86.776 377.749h37.908v-74.2H86.776Z"/></clipPath><clipPath id="d" clipPathUnits="userSpaceOnUse"><path d="M138.87 388.868h37.907v-85.319H138.87Z"/></clipPath><clipPath id="e" clipPathUnits="userSpaceOnUse"><path d="M97.037 371.353h70.407v-54.011H97.037Z"/></clipPath><clipPath id="f" clipPathUnits="userSpaceOnUse"><path d="M86.776 377.749h37.908v-74.2H86.776Z"/></clipPath><clipPath id="g" clipPathUnits="userSpaceOnUse"><path d="M138.87 388.868h37.907v-85.319H138.87Z"/></clipPath><clipPath id="h" clipPathUnits="userSpaceOnUse"><path d="M97.037 371.353h70.407v-54.011H97.037Z"/></clipPath><clipPath id="i" clipPathUnits="userSpaceOnUse"><path d="M147.254 286.406h86.672v-65.302h-86.672z"/></clipPath><linearGradient id="j" x1="0" x2="1" y1="0" y2="0" gradientTransform="matrix(128.25587 0 0 -128.25587 118.3 265.885)" gradientUnits="userSpaceOnUse" spreadMethod="pad"><stop offset="0" style="stop-opacity:1;stop-color:#c5c5c6"/><stop offset="0.28301511" style="stop-opacity:1;stop-color:#f9f9f9"/><stop offset="0.51123" style="stop-opacity:1;stop-color:#f9f9f9"/><stop offset="0.68934242" style="stop-opacity:1;stop-color:#f9f9f9"/><stop offset="1" style="stop-opacity:1;stop-color:#c4c5c6"/></linearGradient><linearGradient id="k" x1="0" x2="1" y1="0" y2="0" gradientTransform="matrix(128.27977 0 0 -128.27977 118.292 265.885)" gradientUnits="userSpaceOnUse" spreadMethod="pad"><stop offset="0" style="stop-opacity:1;stop-color:#c5c5c6"/><stop offset="0.28301511" style="stop-opacity:1;stop-color:#f9f9f9"/><stop offset="0.51123" style="stop-opacity:1;stop-color:#f9f9f9"/><stop offset="0.68934242" style="stop-opacity:1;stop-color:#f9f9f9"/><stop offset="1" style="stop-opacity:1;stop-color:#c4c5c6"/></linearGradient><linearGradient id="l" x1="0" x2="1" y1="0" y2="0" gradientTransform="matrix(128.35355 0 0 -128.35355 118.27 231.787)" gradientUnits="userSpaceOnUse" spreadMethod="pad"><stop offset="0" style="stop-opacity:1;stop-color:#c5c5c6"/><stop offset="0.28301511" style="stop-opacity:1;stop-color:#f9f9f9"/><stop offset="0.51123" style="stop-opacity:1;stop-color:#f9f9f9"/><stop offset="0.68934242" style="stop-opacity:1;stop-color:#f9f9f9"/><stop offset="1" style="stop-opacity:1;stop-color:#c4c5c6"/></linearGradient><linearGradient id="m" x1="0" x2="1" y1="0" y2="0" gradientTransform="matrix(128.3078 0 0 -128.3078 118.283 229.082)" gradientUnits="userSpaceOnUse" spreadMethod="pad"><stop offset="0" style="stop-opacity:1;stop-color:#c5c5c6"/><stop offset="0.28301511" style="stop-opacity:1;stop-color:#f9f9f9"/><stop offset="0.51123" style="stop-opacity:1;stop-color:#f9f9f9"/><stop offset="0.68934242" style="stop-opacity:1;stop-color:#f9f9f9"/><stop offset="1" style="stop-opacity:1;stop-color:#c4c5c6"/></linearGradient><linearGradient id="n" x1="0" x2="1" y1="0" y2="0" gradientTransform="matrix(128.27153 0 0 -128.27153 118.298 229.264)" gradientUnits="userSpaceOnUse" spreadMethod="pad"><stop offset="0" style="stop-opacity:1;stop-color:#c5c5c6"/><stop offset="0.28301511" style="stop-opacity:1;stop-color:#f9f9f9"/><stop offset="0.51123" style="stop-opacity:1;stop-color:#f9f9f9"/><stop offset="0.68934242" style="stop-opacity:1;stop-color:#f9f9f9"/><stop offset="1" style="stop-opacity:1;stop-color:#c4c5c6"/></linearGradient><linearGradient id="o" x1="0" x2="1" y1="0" y2="0" gradientTransform="matrix(128.27509 0 0 -128.27509 118.301 229.082)" gradientUnits="userSpaceOnUse" spreadMethod="pad"><stop offset="0" style="stop-opacity:1;stop-color:#c5c5c6"/><stop offset="0.28301511" style="stop-opacity:1;stop-color:#f9f9f9"/><stop offset="0.51123" style="stop-opacity:1;stop-color:#f9f9f9"/><stop offset="0.68934242" style="stop-opacity:1;stop-color:#f9f9f9"/><stop offset="1" style="stop-opacity:1;stop-color:#c4c5c6"/></linearGradient><radialGradient id="a" cx="0" cy="0" r="1" fx="0" fy="0" gradientTransform="matrix(121.70016 0 0 -121.72697 159.686 293.92)" gradientUnits="userSpaceOnUse" spreadMethod="pad"><stop offset="0" style="stop-opacity:1;stop-color:#179680"/><stop offset="0.31868042" style="stop-opacity:1;stop-color:#179680"/><stop offset="1" style="stop-opacity:1;stop-color:#0d7c74"/></radialGradient></defs><path d="M49.863 429.973V256.167c0-24.095 2.839-52.9 55.019-73.817 52.174-20.926 52.689-20.926 52.689-20.926s.505 0 52.679 20.926c52.189 20.917 55.02 49.722 55.02 73.817v173.806z" style="fill:url(#a);stroke:none" transform="matrix(2.70102 0 0 -2.70102 -134.68 1161.365)"/><g clip-path="url(#b)" transform="matrix(2.70102 0 0 -2.70102 -134.68 1161.365)"><path d="M0 0c-44.072-18.062-44.496-18.062-44.496-18.062s-.424 0-44.486 18.062c-44.082 18.05-46.469 42.911-46.469 63.687v61.557h51.923v26.819h-51.923v59.984h181.94v-59.984h-96.918v-26.819h96.918V63.687C46.489 42.911 44.082 18.05 0 0m-143.25 219.554V61.729c0-21.986 2.588-48.32 50.237-67.4 47.639-19.11 48.103-19.11 48.103-19.11s.454 0 48.123 19.11c47.629 19.08 50.207 45.414 50.207 67.4v157.825z" style="fill:#e6e6e7;fill-opacity:1;fill-rule:nonzero;stroke:none" transform="translate(201.936 198.857)"/><path d="M0 0c-44.072-18.051-44.506-18.051-44.506-18.051s-.434 0-44.486 18.051c-44.072 18.061-46.468 42.922-46.468 63.687v61.557h51.917v26.829h-51.917v59.984H46.479v-59.984h-96.913v-26.829h96.913V63.687C46.479 42.922 44.078 18.061 0 0m-143.26 219.563V61.719c0-21.965 2.588-48.3 50.238-67.38 47.638-19.11 48.103-19.11 48.103-19.11s.474 0 48.112 19.11c47.65 19.08 50.218 45.415 50.218 67.38v157.844z" style="fill:#656364;fill-opacity:1;fill-rule:nonzero;stroke:none" transform="translate(203.025 197.768)"/><path d="M0 0c-44.062-18.051-44.496-18.051-44.496-18.051s-.434 0-44.506 18.051c-44.062 18.04-46.458 42.922-46.458 63.697v61.547h51.921v26.829h-51.921v59.985H46.468v-59.985h-96.907v-26.829h96.907V63.697C46.468 42.922 44.072 18.04 0 0m-143.25 219.563V61.729c0-21.975 2.578-48.299 50.227-67.4 47.639-19.1 48.103-19.1 48.103-19.1s.474 0 48.113 19.1C50.842 13.43 53.42 39.754 53.42 61.729v157.834z" style="fill:#fff;fill-opacity:1;fill-rule:nonzero;stroke:none" transform="translate(202.501 198.292)"/><path d="M0 0c-.797.081-2.079.223-3.168.363-.01.616-.01 1.251-.01 1.705v80.83l-8.632-2.321c-49.657-13.379-80.083-17.052-80.083-17.052l-5.645-.988V46.242s8.475-.484 10.251-.596V2.068c0-.454 0-1.089-.01-1.705-1.09-.14-2.371-.282-3.168-.363l-6.145-.625v-17.566H6.145V-.625z" style="fill:#fff;fill-opacity:1;fill-rule:nonzero;stroke:none" transform="translate(177.473 314.9)"/><g clip-path="url(#c)"><path d="M0 0c8.627 1.524 19.479 3.623 28.58 6.064v-60.781c0-7.587.221-7.94 9.328-8.868v-4.551H.928v4.551c9.101.928 9.333 1.281 9.333 8.868v44.456c0 4.894-.464 5.6-4.202 5.832L0-4.086Z" style="fill:#fff;fill-opacity:1;fill-rule:nonzero;stroke:none" transform="translate(86.776 371.685)"/></g><g clip-path="url(#d)"><path d="M0 0c8.627 1.523 19.479 3.622 28.574 6.074v-71.9c0-7.587.232-7.941 9.333-8.868v-4.551H.928v4.551c9.106.927 9.338 1.281 9.338 8.868v55.564c0 4.894-.464 5.601-4.202 5.832L0-4.076Z" style="fill:#fff;fill-opacity:1;fill-rule:nonzero;stroke:none" transform="translate(138.87 382.794)"/></g><g clip-path="url(#e)"><path d="M0 0s-24.866-33.63-70.407-33.63v-20.381S-25.704-49.35 0-7.779z" style="fill:#fff;fill-opacity:1;fill-rule:nonzero;stroke:none" transform="translate(167.444 371.353)"/></g><path d="M0 0c-.797.081-2.079.223-3.168.363-.01.616-.01 1.251-.01 1.705v80.83l-8.632-2.321c-49.657-13.379-80.083-17.052-80.083-17.052l-5.645-.988V46.242s8.475-.484 10.251-.596V2.068c0-.454 0-1.089-.01-1.705-1.09-.14-2.371-.282-3.168-.363l-6.145-.625v-17.566H6.145V-.625z" style="fill:#fff;fill-opacity:1;fill-rule:nonzero;stroke:none" transform="translate(177.473 314.9)"/><g clip-path="url(#f)"><path d="M0 0c8.627 1.524 19.479 3.623 28.58 6.064v-60.781c0-7.587.221-7.94 9.328-8.868v-4.551H.928v4.551c9.101.928 9.333 1.281 9.333 8.868v44.456c0 4.894-.464 5.6-4.202 5.832L0-4.086Z" style="fill:#179680;fill-opacity:1;fill-rule:nonzero;stroke:none" transform="translate(86.776 371.685)"/></g><g clip-path="url(#g)"><path d="M0 0c8.627 1.523 19.479 3.622 28.574 6.074v-71.9c0-7.587.232-7.941 9.333-8.868v-4.551H.928v4.551c9.106.927 9.338 1.281 9.338 8.868v55.564c0 4.894-.464 5.601-4.202 5.832L0-4.076Z" style="fill:#bbd05e;fill-opacity:1;fill-rule:nonzero;stroke:none" transform="translate(138.87 382.794)"/></g><g clip-path="url(#h)"><path d="M0 0s-24.866-33.63-70.407-33.63v-20.381S-25.704-49.35 0-7.779z" style="fill:#c65a90;fill-opacity:1;fill-rule:nonzero;stroke:none" transform="translate(167.444 371.353)"/></g><g clip-path="url(#i)"><path d="M0 0v-22.409h-6.397v38.896H0V4.066h6.16V0Zm-22.858 8.042c-1.332 0-2.442-.888-3.34-2.644-.903-1.765-1.337-4.085-1.307-6.982-.03-2.795.394-5.045 1.287-6.729.877-1.686 1.977-2.533 3.309-2.533 1.337 0 2.437.837 3.325 2.512.882 1.665 1.336 3.925 1.336 6.75 0 3.048-.443 5.408-1.316 7.094-.868 1.684-1.968 2.532-3.294 2.532m-3.31 4.157v4.288h6.634v-4.288h8.864V8.123h-4.646c1.039-1.201 1.877-2.634 2.482-4.288.615-1.646.938-3.461.979-5.419-.041-1.927-.313-3.703-.848-5.327-.545-1.635-1.302-3.027-2.28-4.207-.984-1.201-2.144-2.14-3.456-2.795q-2.005-.999-4.419-.999c-1.675-.03-3.189.292-4.556.978a10.26 10.26 0 0 0-3.456 2.775c-.979 1.201-1.725 2.613-2.25 4.248-.525 1.624-.782 3.4-.782 5.327 0 1.958.308 3.773.923 5.419.616 1.654 1.443 3.087 2.482 4.288h-4.353v4.076z" style="fill:#727071;fill-opacity:1;fill-rule:nonzero;stroke:none" transform="translate(182.105 269.919)"/><path d="M0 0h12.774c.645 0 1.281.03 1.917.091.641.06 1.256.181 1.882.333.605.172 1.261.433 1.962.797v23.852h6.402V12.652h6.165V8.586h-6.165v-22.409h-6.402v10.988c-1.135-.495-2.407-.817-3.824-.979a34 34 0 0 0-4.102-.252H-3.567c-1.422 0-2.593.554-3.526 1.655C-8.031-1.312-8.496 0-8.496 1.533v21.724h6.408V1.675c0-.545.171-.958.514-1.251Q-1.044.001 0 0" style="fill:#727071;fill-opacity:1;fill-rule:nonzero;stroke:none" transform="translate(202.824 261.333)"/><path d="M0 0v-22.783h-4.682v10.968h-9.706v-10.968h-4.682V0h4.682v-8.849h9.706V0Z" style="fill:#727071;fill-opacity:1;fill-rule:nonzero;stroke:none" transform="translate(171.182 244.251)"/><path d="m0 0-2.295-.303c-1.07-.131-1.933-.473-2.599-1.039-.655-.564-.988-1.271-.988-2.119q0-1.135.665-1.815a2.12 2.12 0 0 1 1.594-.687c.48 0 .944.061 1.378.192.444.131.827.374 1.15.716.343.343.605.797.797 1.382.192.575.298 1.322.298 2.231Zm1.029-8.536c-.141.081-.293.283-.464.586a1.85 1.85 0 0 0-.262.918 5.4 5.4 0 0 0-2.427-1.474 9.7 9.7 0 0 0-2.699-.393c-1.615 0-2.962.474-4.031 1.413-1.069.948-1.594 2.24-1.594 3.864 0 1.493.555 2.805 1.675 3.925 1.13 1.12 2.77 1.786 4.908 1.998l3.829.424c0 1.392-.333 2.34-.978 2.855a3.5 3.5 0 0 1-2.2.757 6.6 6.6 0 0 1-2.85-.636 11 11 0 0 1-2.487-1.604l-.787 3.289a10.8 10.8 0 0 0 2.9 1.362c1.01.303 2.17.454 3.497.454.817 0 1.674-.111 2.542-.323A7 7 0 0 0 1.978 7.8a5.74 5.74 0 0 0 1.78-1.968c.454-.807.686-1.816.686-3.007v-7.093c0-.675.051-1.392.172-2.159a6.5 6.5 0 0 1 .676-2.109z" style="fill:#727071;fill-opacity:1;fill-rule:nonzero;stroke:none" transform="translate(184.854 230.004)"/><path d="M0 0v-1.493A6.1 6.1 0 0 0 2.164-.151a7.1 7.1 0 0 0 2.583.474q3.277 0 5.176-1.816c1.262-1.221 1.887-2.886 1.887-4.985v-10.937H7.335v10.312c0 1.332-.302 2.402-.928 3.229-.636.827-1.509 1.23-2.649 1.23q-1.575 0-2.658-1.21C.394-4.671.03-5.791.03-7.224v-10.191h-4.445V0Z" style="fill:#727071;fill-opacity:1;fill-rule:nonzero;stroke:none" transform="translate(197.774 238.883)"/><path d="m0 0-2.295-.303c-1.07-.131-1.928-.473-2.583-1.039-.671-.564-.995-1.271-.995-2.119 0-.757.212-1.361.672-1.815a2.08 2.08 0 0 1 1.584-.687c.474 0 .938.061 1.382.192a2.5 2.5 0 0 1 1.145.716c.333.343.606.797.798 1.382.201.575.292 1.322.292 2.231Zm1.029-8.536c-.141.081-.293.283-.464.586a1.83 1.83 0 0 0-.252.918 5.5 5.5 0 0 0-2.427-1.474 9.8 9.8 0 0 0-2.694-.393c-1.63 0-2.971.474-4.041 1.413-1.074.948-1.599 2.24-1.599 3.864 0 1.493.555 2.805 1.69 3.925q1.681 1.68 4.899 1.998l3.829.424c0 1.392-.323 2.34-.979 2.855a3.5 3.5 0 0 1-2.205.757 6.6 6.6 0 0 1-2.85-.636 10.8 10.8 0 0 1-2.482-1.604l-.782 3.289a10.9 10.9 0 0 0 2.89 1.362c1.015.303 2.185.454 3.497.454.827 0 1.68-.111 2.547-.323A7.2 7.2 0 0 0 1.993 7.8c.726-.494 1.311-1.151 1.765-1.968.454-.807.686-1.816.686-3.007v-7.093c0-.675.051-1.392.172-2.159a6.7 6.7 0 0 1 .676-2.109z" style="fill:#727071;fill-opacity:1;fill-rule:nonzero;stroke:none" transform="translate(223.125 230.004)"/></g></g><path d="M175.001 287.113v-38.898h6.397v22.411h6.16v4.066h-6.16v12.421zm-19.776 0v-4.299h-8.677v-4.066h4.364c-1.049-1.202-1.877-2.633-2.498-4.288-.605-1.645-.918-3.461-.918-5.418 0-1.927.252-3.703.787-5.338.52-1.624 1.266-3.037 2.246-4.238a10.2 10.2 0 0 1 3.465-2.774c1.352-.686 2.871-1.009 4.545-.98 1.621 0 3.083.334 4.415.999 1.327.657 2.477 1.594 3.466 2.796.984 1.181 1.731 2.573 2.275 4.197.535 1.635.817 3.411.848 5.338-.031 1.957-.354 3.773-.969 5.418q-.922 2.484-2.487 4.288h4.641v4.066h-8.864v4.299zm-.051-24.802c-.887 1.686-1.311 3.936-1.28 6.731-.031 2.885.403 5.216 1.311 6.972.903 1.766 2.012 2.653 3.334 2.653 1.338 0 2.427-.848 3.305-2.533.858-1.684 1.307-4.056 1.307-7.092 0-2.836-.449-5.086-1.337-6.751-.878-1.674-1.988-2.511-3.314-2.511q-2 .002-3.326 2.531" style="fill:url(#j);stroke:none" transform="matrix(2.70102 0 0 -2.70102 -134.68 1161.365)"/><path d="M220.658 287.113V263.26c-.696-.353-1.352-.626-1.968-.798a12 12 0 0 0-1.882-.333c-.625-.07-1.261-.09-1.907-.09h-12.784c-.706 0-1.221.142-1.564.423-.352.294-.514.707-.514 1.242v21.592h-6.417v-21.723c0-1.534.474-2.846 1.403-3.945.933-1.099 2.113-1.656 3.526-1.656h14.186c1.327 0 2.689.081 4.092.253 1.417.161 2.688.485 3.829.97v-10.98h6.396v22.411h6.165v4.066h-6.165v12.421z" style="fill:url(#k);stroke:none" transform="matrix(2.70102 0 0 -2.70102 -134.68 1161.365)"/><path d="M165.794 244.957v-8.858h-9.696v8.858h-4.692v-22.782h4.692v10.966h9.696v-10.966h4.692v22.782z" style="fill:url(#l);stroke:none" transform="matrix(2.70102 0 0 -2.70102 -134.68 1161.365)"/><path d="M177.71 239.449a10.3 10.3 0 0 1-2.89-1.353l.776-3.3a11 11 0 0 0 2.488 1.615 6.6 6.6 0 0 0 2.855.635c.822 0 1.559-.252 2.195-.756.656-.514.978-1.463.978-2.855l-3.829-.424c-2.139-.213-3.769-.888-4.898-2.008-1.141-1.11-1.69-2.422-1.69-3.915 0-1.624.529-2.926 1.599-3.865 1.069-.937 2.416-1.412 4.031-1.412a9.8 9.8 0 0 1 2.709.395c.908.251 1.715.746 2.421 1.462 0-.302.081-.606.263-.908.166-.303.317-.505.459-.585h4.273a6.2 6.2 0 0 0-.687 2.109c-.11.765-.171 1.483-.171 2.159v7.093c0 1.19-.227 2.199-.691 3.006-.454.818-1.039 1.474-1.766 1.968a6.9 6.9 0 0 1-2.386 1.069q-1.3.333-2.548.333c-1.312 0-2.482-.151-3.491-.463m1.232-14.015c-.455.453-.666 1.059-.666 1.816 0 .848.333 1.553.988 2.119.656.565 1.523.908 2.588 1.039l2.291.293v-1.433c0-.918-.091-1.654-.283-2.23-.202-.576-.464-1.029-.807-1.383a2.43 2.43 0 0 0-1.141-.715 4.8 4.8 0 0 0-1.386-.203c-.616 0-1.151.242-1.584.697" style="fill:url(#m);stroke:none" transform="matrix(2.70102 0 0 -2.70102 -134.68 1161.365)"/><path d="M199.237 239.439a6.5 6.5 0 0 1-2.169-1.343v1.483h-4.415v-17.404h4.444v10.181c0 1.432.364 2.562 1.07 3.379.727.807 1.61 1.212 2.659 1.212 1.14 0 2.018-.414 2.649-1.233.625-.827.938-1.896.938-3.228v-10.311h4.474v10.937c0 2.108-.635 3.763-1.896 4.984q-1.9 1.815-5.176 1.816a7.1 7.1 0 0 1-2.578-.473" style="fill:url(#n);stroke:none" transform="matrix(2.70102 0 0 -2.70102 -134.68 1161.365)"/><path d="M215.981 239.449a10.6 10.6 0 0 1-2.891-1.353l.787-3.3a10.7 10.7 0 0 0 2.477 1.615 6.6 6.6 0 0 0 2.851.635c.827 0 1.553-.252 2.215-.756q.967-.769.967-2.855l-3.828-.424c-2.134-.213-3.778-.888-4.903-2.008-1.131-1.11-1.686-2.422-1.686-3.915 0-1.624.524-2.926 1.595-3.865 1.084-.937 2.416-1.412 4.03-1.412.893 0 1.802.132 2.709.395.913.251 1.721.746 2.427 1.462 0-.302.08-.606.252-.908s.323-.505.464-.585h4.273a6.5 6.5 0 0 0-.686 2.109 15 15 0 0 0-.171 2.159v7.093c0 1.19-.222 2.199-.686 3.006-.454.818-1.04 1.474-1.771 1.968a6.7 6.7 0 0 1-2.381 1.069q-1.311.333-2.537.333c-1.323 0-2.498-.151-3.507-.463m1.231-14.015c-.444.453-.677 1.059-.677 1.816q0 1.271 1 2.119c.661.565 1.529.908 2.598 1.039l2.295.293v-1.433c0-.918-.101-1.654-.293-2.23s-.463-1.029-.806-1.383a2.42 2.42 0 0 0-1.146-.715 4.8 4.8 0 0 0-1.382-.203c-.616 0-1.145.242-1.589.697" style="fill:url(#o);stroke:none" transform="matrix(2.70102 0 0 -2.70102 -134.68 1161.365)"/></svg>